{
	"asset":{
		"version":"2.0",
		"generator":"Houdini GLTF 2.0 Exporter"
	},
	"accessors":[
		{
			"bufferView":0,
			"componentType":5125,
			"count":2001750,
			"type":"SCALAR",
			"min":[0
			],
			"max":[337287
			]
		},
		{
			"bufferView":1,
			"componentType":5126,
			"count":337288,
			"type":"VEC3",
			"min":[-1.09221601,-1.44489074,-0.471089542
			],
			"max":[1.09060407,1.39587653,1.08821344
			]
		},
		{
			"bufferView":2,
			"componentType":5126,
			"count":337288,
			"type":"SCALAR",
			"min":[1
			],
			"max":[1
			]
		},
		{
			"bufferView":3,
			"componentType":5126,
			"count":337288,
			"type":"VEC3",
			"min":[1,1,1
			],
			"max":[1,1,1
			]
		},
		{
			"bufferView":4,
			"componentType":5126,
			"count":337288,
			"type":"VEC2",
			"min":[0.0148273408,0.0484888554
			],
			"max":[0.984826565,0.855100453
			]
		},
		{
			"bufferView":5,
			"componentType":5126,
			"count":337288,
			"type":"VEC3",
			"min":[-0.999983966,-0.999972939,-0.999999166
			],
			"max":[0.999997556,0.999987543,0.99999994
			]
		},
		{
			"bufferView":6,
			"componentType":5125,
			"count":337288,
			"type":"SCALAR",
			"min":[-27890
			],
			"max":[15464
			]
		}
	],
	"buffers":[
		{
			"uri":"01_data.bin",
			"byteLength":25545976,
			"name":"main_buffer"
		}
	],
	"bufferViews":[
		{
			"buffer":0,
			"byteLength":8007000,
			"target":34963
		},
		{
			"buffer":0,
			"byteOffset":8007000,
			"byteLength":4047456,
			"target":34962
		},
		{
			"buffer":0,
			"byteOffset":12054456,
			"byteLength":1349152,
			"target":34962
		},
		{
			"buffer":0,
			"byteOffset":13403608,
			"byteLength":4047456,
			"target":34962
		},
		{
			"buffer":0,
			"byteOffset":17451064,
			"byteLength":2698304,
			"target":34962
		},
		{
			"buffer":0,
			"byteOffset":20149368,
			"byteLength":4047456,
			"target":34962
		},
		{
			"buffer":0,
			"byteOffset":24196824,
			"byteLength":1349152,
			"target":34962
		}
	],
	"nodes":[
		{
			"name":"geo1",
			"mesh":0
		}
	],
	"meshes":[
		{
			"primitives":[
				{
					"attributes":{
						"_polygroup":6,
						"TEXCOORD_0":4,
						"NORMAL":5,
						"COLOR_0":3,
						"_mask":2,
						"POSITION":1
					},
					"indices":0,
					"material":0
				}
			],
			"name":"normal1"
		}
	],
	"materials":[
		{
			"name":"principledshader1",
			"pbrMetallicRoughness":{
				"baseColorFactor":[0.5,1,0,1
				],
				"roughnessFactor":0.130999997
			}
		}
	],
	"scenes":[
		{
			"nodes":[0
			]
		}
	],
	"scene":0
}
